<?xml version="1.0" encoding="UTF-8" standalone="no" ?>
<!DOCTYPE svg PUBLIC "-//W3C//DTD SVG 1.1//EN" "http://www.w3.org/Graphics/SVG/1.1/DTD/svg11.dtd">
<svg xmlns="http://www.w3.org/2000/svg" xmlns:xlink="http://www.w3.org/1999/xlink" version="1.1" width="1080" height="1080" viewBox="0 0 1080 1080" xml:space="preserve">
<desc>Created with Fabric.js 5.2.4</desc>
<defs>
</defs>
<rect x="0" y="0" width="100%" height="100%" fill="transparent"></rect>
<g transform="matrix(1 0 0 1 540 540)" id="12e7f081-fd32-48f4-b1bb-e4270b7c988a"  >
<rect style="stroke: none; stroke-width: 1; stroke-dasharray: none; stroke-linecap: butt; stroke-dashoffset: 0; stroke-linejoin: miter; stroke-miterlimit: 4; fill: rgb(255,255,255); fill-rule: nonzero; opacity: 1; visibility: hidden;" vector-effect="non-scaling-stroke"  x="-540" y="-540" rx="0" ry="0" width="1080" height="1080" />
</g>
<g transform="matrix(1 0 0 1 540 540)" id="f47d196e-7c1b-430f-a873-fb7034c4caf0"  >
</g>
<g transform="matrix(2.05 0 0 2.05 540 576.82)" id="aff253de-cf9f-4a59-9770-03e5409cfe6c"  >
<path style="stroke: rgb(0,0,0); stroke-width: 0; stroke-dasharray: none; stroke-linecap: butt; stroke-dashoffset: 0; stroke-linejoin: miter; stroke-miterlimit: 4; fill: rgb(255,255,255); fill-rule: nonzero; opacity: 1;" vector-effect="non-scaling-stroke"  transform=" translate(-256, -256)" d="M 512 64 C 512 177.6 427.4 271.5 317.8 286 C 310.7 232.6 287.2 184.4 252.5 146.7 C 290.8 78.3 364 32 448 32 L 480 32 C 497.7 32 512 46.3 512 64 z M 0 128 C 0 110.3 14.3 96 32 96 L 64 96 C 187.7 96 288 196.3 288 320 L 288 352 L 288 448 C 288 465.7 273.7 480 256 480 C 238.3 480 224 465.7 224 448 L 224 352 C 100.3 352 0 251.7 0 128 z" stroke-linecap="round" />
</g>
</svg>